<svg version="1.1" xmlns="http://www.w3.org/2000/svg" viewBox="0 0 883.5493662558181 157.0080796191482" width="883.5493662558181" height="157.0080796191482">
  <!-- svg-source:excalidraw -->
  
  <defs><style></style></defs>
  <g stroke-linecap="round" transform="translate(10 13.086217165659491) rotate(0 86.06188177429928 39.32091386885685)"><path d="M2.19 2.09 L169.25 3.01 L175.65 75.07 L-3.72 81.66" stroke="none" stroke-width="0" fill="#868e96"></path><path d="M0.49 -1.57 C62.93 -2.82, 125.53 -4.8, 170.8 -1.12 M-0.05 -1.06 C51.31 -1.26, 98.73 -2.47, 172.88 -0.81 M175.43 1.3 C176.09 31.68, 173.3 61.39, 168.61 79.64 M173.31 -0.04 C172.66 23.83, 170.39 45.27, 172.41 77.86 M171.58 82.07 C109.59 76.95, 42.77 80.56, -3.13 80.99 M171.75 78.98 C104.77 77.79, 42.46 77.35, -0.95 79.1 M-2.33 82.54 C-2.15 52.14, -3 18.39, 0.05 -0.95 M-1.21 80.4 C1.29 57.96, -1.09 40.6, -1.57 1.96" stroke="#1e1e1e" stroke-width="2" fill="none"></path></g><g transform="translate(62.95191168152587 40.40713103451634) rotate(0 33.10997009277344 12)"><text x="33.10997009277344" y="0" font-family="Monaco" font-size="15px" fill="#1e1e1e" text-anchor="middle" style="white-space: pre;" direction="ltr" dominant-baseline="text-before-edge">Header</text></g><g stroke-linecap="round" transform="translate(181.52681632119823 13.044430859741453) rotate(0 86.06188177429928 39.32091386885685)"><path d="M-2.88 3.01 L175.65 -3.57 L168.41 81.66 L-1.55 75.89" stroke="none" stroke-width="0" fill="#b2f2bb"></path><path d="M-0.17 0.46 C67.4 -0.17, 134.79 0.23, 171.78 0.92 M1.13 -0.28 C54.93 0.33, 113.85 1.01, 173.72 1.33 M175.04 1.82 C173.55 17.56, 169.91 32.79, 171.44 77.93 M172.94 1.57 C171.6 17.72, 173.34 33.12, 173.51 78.8 M173.12 76.59 C116.38 83.15, 62.11 83.94, 3.23 76.71 M170.28 79.71 C131.43 79.85, 87.05 79.69, 1.65 77.99 M-2.66 82.22 C-2.6 55.69, 0.97 31.96, -1.97 -0.83 M0.96 77.67 C-0.47 63.72, -0.62 48, 1.09 1.05" stroke="#1e1e1e" stroke-width="2" fill="none"></path></g><g transform="translate(187.918768591103 28.365344728598302) rotate(0 79.66992950439453 24)"><text x="79.66992950439453" y="0" font-family="Monaco" font-size="15px" fill="#1e1e1e" text-anchor="middle" style="white-space: pre;" direction="ltr" dominant-baseline="text-before-edge">Array of pointer</text><text x="79.66992950439453" y="24" font-family="Monaco" font-size="15px" fill="#1e1e1e" text-anchor="middle" style="white-space: pre;" direction="ltr" dominant-baseline="text-before-edge">to tuples</text></g><g stroke-linecap="round" transform="translate(353.1610831433286 13.507064960976606) rotate(0 86.06188177429928 39.32091386885685)"><path d="M3.52 -3.57 L168.41 3.02 L170.58 75.89 L-3.65 80.86" stroke="none" stroke-width="0" fill="#a5d8ff"></path><path d="M-0.66 -1.51 C43.58 -1.52, 89.46 0.52, 173.26 -0.1 M-1.62 -1.48 C43.31 -0.33, 86.69 1.81, 170.17 1.66 M172.25 1.66 C169.76 27.14, 172.59 51.57, 168.75 81.01 M170.67 0.76 C173.05 22.66, 174.15 47.02, 172.33 78.37 M169.82 80.2 C102.62 79.22, 42.6 74.95, -2.22 77.89 M173.49 79.27 C116.62 80.94, 64.66 79.83, -0.18 77.48 M-3.52 78.56 C1.1 46.43, -0.93 15.28, -3.71 -2.41 M-1.42 80.02 C-2.33 50.08, 0.34 18.65, -1.44 1.5" stroke="#1e1e1e" stroke-width="2" fill="none"></path></g><g transform="translate(385.7230106939951 40.827978829833455) rotate(0 53.49995422363281 12)"><text x="53.49995422363281" y="0" font-family="Monaco" font-size="15px" fill="#1e1e1e" text-anchor="middle" style="white-space: pre;" direction="ltr" dominant-baseline="text-before-edge">Free space</text></g><g stroke-linecap="round" transform="translate(524.6878994645268 13.465278655058626) rotate(0 86.06188177429928 39.32091386885685)"><path d="M-3.72 3.02 L170.58 -2.75 L168.48 80.86 L2.71 75.23" stroke="none" stroke-width="0" fill="#2f9e44"></path><path d="M-1.32 -1.12 C53.28 2.22, 108.38 1.2, 170.01 2.27 M0.76 -0.81 C50.86 3.89, 96.57 4.21, 172.77 1.46 M168.61 1 C171.49 26.45, 168.8 56.7, 172.04 80.27 M172.41 -0.78 C172.36 29.94, 171.19 59.29, 173.84 79.14 M168.99 80.99 C132.54 78.05, 84.29 79.23, 0.68 74.96 M171.17 79.1 C112.96 79.07, 50.3 78.55, 1.95 77.31 M0.05 77.7 C-0.59 47.18, -2.33 14.96, 3.52 1.92 M-1.57 80.6 C2.21 59.92, -0.32 40.6, 1.76 -1.79" stroke="#1e1e1e" stroke-width="2" fill="none"></path></g><g transform="translate(578.569819080623 40.786192523915474) rotate(0 32.179962158203125 12)"><text x="32.179962158203125" y="0" font-family="Monaco" font-size="15px" fill="#1e1e1e" text-anchor="middle" style="white-space: pre;" direction="ltr" dominant-baseline="text-before-edge">Tuples</text></g><g stroke-linecap="round" transform="translate(698.3219394984479 10) rotate(0 86.0618817742993 39.32091386885685)"><path d="M-1.55 -2.75 L168.48 2.22 L174.83 75.23 L3.77 80.05" stroke="none" stroke-width="0" fill="#da77f2"></path><path d="M-0.34 0.92 C46.26 0.86, 88.12 3.23, 171.57 -3.23 M1.59 1.33 C36.91 3.04, 78.39 2.85, 173.03 0.06 M171.44 -0.71 C167.36 29.23, 170.66 55.35, 175.27 75.73 M173.51 0.16 C172.56 26.33, 174.06 53.7, 171.1 77.49 M175.35 76.71 C111.57 79.91, 56.14 76.98, 2.13 81.38 M173.77 77.99 C114.93 78.27, 60.05 78.1, 1.79 76.88 M-1.97 77.81 C-3.73 52.8, 3.5 33.7, -1.94 -2.84 M1.09 79.69 C-0.2 51.12, 3 18.81, -1.86 1.51" stroke="#1e1e1e" stroke-width="2" fill="none"></path></g><g transform="translate(718.873880171673 37.32091386885685) rotate(0 65.50994110107422 12)"><text x="65.50994110107422" y="0" font-family="Monaco" font-size="15px" fill="#1e1e1e" text-anchor="middle" style="white-space: pre;" direction="ltr" dominant-baseline="text-before-edge">Special space</text></g><g stroke-linecap="round"><g transform="translate(525.3266329978451 131.50860813732828) rotate(0 173.8399868273744 -3.4025991961816544)"><path d="M0.75 -0.07 C93.19 -1.41, 188.78 -6.86, 345.74 -5.81 M-1.28 1.08 C90.64 -3.84, 181.1 -6.52, 348.22 -7.95" stroke="#1e1e1e" stroke-width="2" fill="none"></path></g><g transform="translate(525.3266329978451 131.50860813732828) rotate(0 173.8399868273744 -3.4025991961816544)"><path d="M321.3 2.55 C325.7 1.91, 334.89 -6.48, 345.26 -6.43 M318.21 4.31 C327.93 0.99, 335.47 -3.16, 349.05 -9.71" stroke="#1e1e1e" stroke-width="2" fill="none"></path></g><g transform="translate(525.3266329978451 131.50860813732828) rotate(0 173.8399868273744 -3.4025991961816544)"><path d="M321.05 -17.96 C325.48 -13.03, 334.74 -15.83, 345.26 -6.43 M317.95 -16.21 C328.07 -14.21, 335.68 -13.03, 349.05 -9.71" stroke="#1e1e1e" stroke-width="2" fill="none"></path></g></g><mask></mask><g stroke-linecap="round"><g transform="translate(354.2893134031151 135.46636825499212) rotate(0 -168.62565279603282 -1.044657647950487)"><path d="M-1.42 1.52 C-109.28 -2.96, -219.81 -0.45, -338.33 0.05 M0.44 0.98 C-123.02 3.02, -246.73 1.03, -336.91 -2.32" stroke="#1e1e1e" stroke-width="2" fill="none"></path></g><g transform="translate(354.2893134031151 135.46636825499212) rotate(0 -168.62565279603282 -1.044657647950487)"><path d="M-310.55 -9.49 C-318.13 -11.96, -329.74 -4.16, -338.53 0.87 M-307.79 -10.3 C-318.16 -7.76, -328.68 -6.12, -336.41 -2.66" stroke="#1e1e1e" stroke-width="2" fill="none"></path></g><g transform="translate(354.2893134031151 135.46636825499212) rotate(0 -168.62565279603282 -1.044657647950487)"><path d="M-311.14 11.02 C-318.65 1.93, -330.07 3.11, -338.53 0.87 M-308.38 10.21 C-318.13 5.22, -328.43 -0.66, -336.41 -2.66" stroke="#1e1e1e" stroke-width="2" fill="none"></path></g></g><mask></mask><g transform="translate(388.82867998049574 123.00807961914819) rotate(0 51.999961853027344 12)"><text x="0" y="0" font-family="Monaco" font-size="15px" fill="#1e1e1e" text-anchor="start" style="white-space: pre;" direction="ltr" dominant-baseline="text-before-edge">8KiB Page</text></g></svg>